<mxfile host="app.diagrams.net" agent="Mozilla/5.0 (Windows NT 10.0; Win64; x64) AppleWebKit/537.36 (KHTML, like Gecko) Chrome/127.0.0.0 Safari/537.36" version="24.7.7" pages="2">
  <diagram name="DIAGRAMA DE SECUENCIA" id="KwOGLxxD-CtIhJ9gNiEi">
    <mxGraphModel dx="1313" dy="696" grid="1" gridSize="10" guides="1" tooltips="1" connect="1" arrows="1" fold="1" page="1" pageScale="1" pageWidth="827" pageHeight="1169" math="0" shadow="0">
      <root>
        <mxCell id="0" />
        <mxCell id="1" parent="0" />
        <mxCell id="jLa2EtzC_MBwGBZeZa0Z-1" value="&lt;span style=&quot;text-wrap: nowrap;&quot;&gt;TAREAS&lt;/span&gt;" style="shape=umlLifeline;perimeter=lifelinePerimeter;whiteSpace=wrap;html=1;container=1;dropTarget=0;collapsible=0;recursiveResize=0;outlineConnect=0;portConstraint=eastwest;newEdgeStyle={&quot;curved&quot;:0,&quot;rounded&quot;:0};" vertex="1" parent="1">
          <mxGeometry x="380" y="10" width="100" height="430" as="geometry" />
        </mxCell>
        <mxCell id="jLa2EtzC_MBwGBZeZa0Z-2" value="" style="html=1;points=[[0,0,0,0,5],[0,1,0,0,-5],[1,0,0,0,5],[1,1,0,0,-5]];perimeter=orthogonalPerimeter;outlineConnect=0;targetShapes=umlLifeline;portConstraint=eastwest;newEdgeStyle={&quot;curved&quot;:0,&quot;rounded&quot;:0};" vertex="1" parent="jLa2EtzC_MBwGBZeZa0Z-1">
          <mxGeometry x="45" y="60" width="10" height="340" as="geometry" />
        </mxCell>
        <mxCell id="jLa2EtzC_MBwGBZeZa0Z-3" value="&lt;span style=&quot;text-wrap: nowrap;&quot;&gt;ASIGNACIONES&lt;/span&gt;" style="shape=umlLifeline;perimeter=lifelinePerimeter;whiteSpace=wrap;html=1;container=1;dropTarget=0;collapsible=0;recursiveResize=0;outlineConnect=0;portConstraint=eastwest;newEdgeStyle={&quot;curved&quot;:0,&quot;rounded&quot;:0};" vertex="1" parent="1">
          <mxGeometry x="740" y="10" width="110" height="430" as="geometry" />
        </mxCell>
        <mxCell id="jLa2EtzC_MBwGBZeZa0Z-4" value="" style="html=1;points=[[0,0,0,0,5],[0,1,0,0,-5],[1,0,0,0,5],[1,1,0,0,-5]];perimeter=orthogonalPerimeter;outlineConnect=0;targetShapes=umlLifeline;portConstraint=eastwest;newEdgeStyle={&quot;curved&quot;:0,&quot;rounded&quot;:0};" vertex="1" parent="jLa2EtzC_MBwGBZeZa0Z-3">
          <mxGeometry x="50" y="110" width="10" height="240" as="geometry" />
        </mxCell>
        <mxCell id="jLa2EtzC_MBwGBZeZa0Z-5" value="&lt;span style=&quot;text-wrap: nowrap;&quot;&gt;&lt;i&gt;PROJECT ADMIN&lt;/i&gt;&lt;/span&gt;" style="shape=umlLifeline;perimeter=lifelinePerimeter;whiteSpace=wrap;html=1;container=1;dropTarget=0;collapsible=0;recursiveResize=0;outlineConnect=0;portConstraint=eastwest;newEdgeStyle={&quot;curved&quot;:0,&quot;rounded&quot;:0};" vertex="1" parent="1">
          <mxGeometry x="220" y="10" width="110" height="430" as="geometry" />
        </mxCell>
        <mxCell id="jLa2EtzC_MBwGBZeZa0Z-6" value="" style="html=1;points=[[0,0,0,0,5],[0,1,0,0,-5],[1,0,0,0,5],[1,1,0,0,-5]];perimeter=orthogonalPerimeter;outlineConnect=0;targetShapes=umlLifeline;portConstraint=eastwest;newEdgeStyle={&quot;curved&quot;:0,&quot;rounded&quot;:0};" vertex="1" parent="jLa2EtzC_MBwGBZeZa0Z-5">
          <mxGeometry x="50" y="60" width="10" height="340" as="geometry" />
        </mxCell>
        <mxCell id="jLa2EtzC_MBwGBZeZa0Z-7" value="&lt;span style=&quot;font-size: 12px; text-align: left; background-color: rgb(251, 251, 251); text-decoration-line: underline;&quot;&gt;asignarTarea&lt;/span&gt;" style="html=1;verticalAlign=bottom;startArrow=oval;startFill=1;endArrow=block;startSize=8;curved=0;rounded=0;" edge="1" parent="1" source="jLa2EtzC_MBwGBZeZa0Z-6" target="jLa2EtzC_MBwGBZeZa0Z-2">
          <mxGeometry x="-0.0345" width="60" relative="1" as="geometry">
            <mxPoint x="280" y="110" as="sourcePoint" />
            <mxPoint x="579.5" y="110" as="targetPoint" />
            <mxPoint as="offset" />
            <Array as="points">
              <mxPoint x="400" y="90" />
            </Array>
          </mxGeometry>
        </mxCell>
        <mxCell id="jLa2EtzC_MBwGBZeZa0Z-8" value="&lt;div style=&quot;text-align: left;&quot;&gt;&lt;span style=&quot;font-size: 12px; background-color: rgb(251, 251, 251);&quot;&gt;asignacion&lt;/span&gt;&lt;/div&gt;" style="html=1;verticalAlign=bottom;endArrow=block;curved=0;rounded=0;dashed=1;entryX=0.333;entryY=0.623;entryDx=0;entryDy=0;entryPerimeter=0;" edge="1" parent="1">
          <mxGeometry x="0.0019" relative="1" as="geometry">
            <mxPoint x="610" y="390.0000000000001" as="sourcePoint" />
            <mxPoint x="270.00000000000006" y="390" as="targetPoint" />
            <mxPoint as="offset" />
          </mxGeometry>
        </mxCell>
        <mxCell id="jLa2EtzC_MBwGBZeZa0Z-9" value="&lt;div style=&quot;text-align: left;&quot;&gt;&lt;span style=&quot;font-size: 12px; background-color: rgb(251, 251, 251);&quot;&gt;notificarAsignacion&lt;/span&gt;&lt;br&gt;&lt;/div&gt;" style="html=1;verticalAlign=bottom;startArrow=oval;startFill=1;endArrow=block;startSize=8;curved=0;rounded=0;" edge="1" parent="1">
          <mxGeometry x="-0.0345" width="60" relative="1" as="geometry">
            <mxPoint x="430" y="254.58" as="sourcePoint" />
            <mxPoint x="1113" y="254.58" as="targetPoint" />
            <mxPoint as="offset" />
          </mxGeometry>
        </mxCell>
        <mxCell id="jLa2EtzC_MBwGBZeZa0Z-10" value="&lt;span style=&quot;text-wrap: nowrap;&quot;&gt;NOTIFICACIONES&amp;nbsp;&lt;/span&gt;" style="shape=umlLifeline;perimeter=lifelinePerimeter;whiteSpace=wrap;html=1;container=1;dropTarget=0;collapsible=0;recursiveResize=0;outlineConnect=0;portConstraint=eastwest;newEdgeStyle={&quot;curved&quot;:0,&quot;rounded&quot;:0};" vertex="1" parent="1">
          <mxGeometry x="1063" y="10" width="110" height="430" as="geometry" />
        </mxCell>
        <mxCell id="jLa2EtzC_MBwGBZeZa0Z-11" value="" style="html=1;points=[[0,0,0,0,5],[0,1,0,0,-5],[1,0,0,0,5],[1,1,0,0,-5]];perimeter=orthogonalPerimeter;outlineConnect=0;targetShapes=umlLifeline;portConstraint=eastwest;newEdgeStyle={&quot;curved&quot;:0,&quot;rounded&quot;:0};" vertex="1" parent="jLa2EtzC_MBwGBZeZa0Z-10">
          <mxGeometry x="50" y="210" width="10" height="50" as="geometry" />
        </mxCell>
        <mxCell id="jLa2EtzC_MBwGBZeZa0Z-12" value="" style="html=1;points=[[0,0,0,0,5],[0,1,0,0,-5],[1,0,0,0,5],[1,1,0,0,-5]];perimeter=orthogonalPerimeter;outlineConnect=0;targetShapes=umlLifeline;portConstraint=eastwest;newEdgeStyle={&quot;curved&quot;:0,&quot;rounded&quot;:0};" vertex="1" parent="jLa2EtzC_MBwGBZeZa0Z-10">
          <mxGeometry x="60" y="226.25" width="10" height="30" as="geometry" />
        </mxCell>
        <mxCell id="jLa2EtzC_MBwGBZeZa0Z-13" value="" style="edgeStyle=orthogonalEdgeStyle;rounded=0;orthogonalLoop=1;jettySize=auto;html=1;curved=0;entryX=1;entryY=1;entryDx=0;entryDy=-5;entryPerimeter=0;" edge="1" parent="jLa2EtzC_MBwGBZeZa0Z-10" source="jLa2EtzC_MBwGBZeZa0Z-12" target="jLa2EtzC_MBwGBZeZa0Z-12">
          <mxGeometry relative="1" as="geometry">
            <Array as="points">
              <mxPoint x="140" y="241" />
              <mxPoint x="140" y="251" />
              <mxPoint x="90" y="251" />
            </Array>
          </mxGeometry>
        </mxCell>
        <mxCell id="jLa2EtzC_MBwGBZeZa0Z-14" value="enviarNotificacion" style="text;html=1;align=center;verticalAlign=middle;resizable=0;points=[];autosize=1;strokeColor=none;fillColor=none;" vertex="1" parent="1">
          <mxGeometry x="1193" y="240" width="120" height="30" as="geometry" />
        </mxCell>
        <mxCell id="jLa2EtzC_MBwGBZeZa0Z-15" value="&lt;span style=&quot;text-wrap: nowrap;&quot;&gt;MIEMBROS DEL EQUIPO&lt;/span&gt;" style="shape=umlLifeline;perimeter=lifelinePerimeter;whiteSpace=wrap;html=1;container=1;dropTarget=0;collapsible=0;recursiveResize=0;outlineConnect=0;portConstraint=eastwest;newEdgeStyle={&quot;curved&quot;:0,&quot;rounded&quot;:0};" vertex="1" parent="1">
          <mxGeometry x="903" y="10" width="110" height="430" as="geometry" />
        </mxCell>
        <mxCell id="jLa2EtzC_MBwGBZeZa0Z-16" value="" style="html=1;points=[[0,0,0,0,5],[0,1,0,0,-5],[1,0,0,0,5],[1,1,0,0,-5]];perimeter=orthogonalPerimeter;outlineConnect=0;targetShapes=umlLifeline;portConstraint=eastwest;newEdgeStyle={&quot;curved&quot;:0,&quot;rounded&quot;:0};" vertex="1" parent="jLa2EtzC_MBwGBZeZa0Z-15">
          <mxGeometry x="50" y="140" width="10" height="210" as="geometry" />
        </mxCell>
        <mxCell id="jLa2EtzC_MBwGBZeZa0Z-17" value="&lt;span style=&quot;font-size: 12px; text-align: left; background-color: rgb(251, 251, 251); text-decoration-line: underline;&quot;&gt;crearAsignacio&lt;/span&gt;" style="html=1;verticalAlign=bottom;startArrow=oval;startFill=1;endArrow=block;startSize=8;curved=0;rounded=0;" edge="1" parent="1">
          <mxGeometry x="-0.0355" width="60" relative="1" as="geometry">
            <mxPoint x="800" y="159.58" as="sourcePoint" />
            <mxPoint x="953" y="159.58" as="targetPoint" />
            <mxPoint as="offset" />
          </mxGeometry>
        </mxCell>
        <mxCell id="jLa2EtzC_MBwGBZeZa0Z-18" value="&lt;span style=&quot;font-size: 12px; text-align: left; background-color: rgb(251, 251, 251);&quot;&gt;Miembro del Equipo&lt;/span&gt;" style="html=1;verticalAlign=bottom;endArrow=block;curved=0;rounded=0;dashed=1;entryX=0.333;entryY=0.623;entryDx=0;entryDy=0;entryPerimeter=0;" edge="1" parent="1">
          <mxGeometry x="0.0019" relative="1" as="geometry">
            <mxPoint x="953" y="190.29" as="sourcePoint" />
            <mxPoint x="793" y="190.00000000000003" as="targetPoint" />
            <mxPoint as="offset" />
          </mxGeometry>
        </mxCell>
        <mxCell id="jLa2EtzC_MBwGBZeZa0Z-19" value="&lt;span style=&quot;text-wrap: nowrap;&quot;&gt;SUBTAREAS&lt;/span&gt;" style="shape=umlLifeline;perimeter=lifelinePerimeter;whiteSpace=wrap;html=1;container=1;dropTarget=0;collapsible=0;recursiveResize=0;outlineConnect=0;portConstraint=eastwest;newEdgeStyle={&quot;curved&quot;:0,&quot;rounded&quot;:0};" vertex="1" parent="1">
          <mxGeometry x="560" y="15" width="110" height="425" as="geometry" />
        </mxCell>
        <mxCell id="jLa2EtzC_MBwGBZeZa0Z-20" value="" style="html=1;points=[[0,0,0,0,5],[0,1,0,0,-5],[1,0,0,0,5],[1,1,0,0,-5]];perimeter=orthogonalPerimeter;outlineConnect=0;targetShapes=umlLifeline;portConstraint=eastwest;newEdgeStyle={&quot;curved&quot;:0,&quot;rounded&quot;:0};" vertex="1" parent="jLa2EtzC_MBwGBZeZa0Z-19">
          <mxGeometry x="50" y="251.25" width="10" height="138.75" as="geometry" />
        </mxCell>
        <mxCell id="jLa2EtzC_MBwGBZeZa0Z-23" value="&lt;span style=&quot;font-size: 12px; text-align: left; background-color: rgb(251, 251, 251); text-decoration-line: underline;&quot;&gt;asignarMiebreTarea&lt;/span&gt;" style="html=1;verticalAlign=bottom;startArrow=oval;startFill=1;endArrow=block;startSize=8;curved=0;rounded=0;" edge="1" parent="1" source="jLa2EtzC_MBwGBZeZa0Z-1">
          <mxGeometry x="-0.0355" width="60" relative="1" as="geometry">
            <mxPoint x="620" y="150" as="sourcePoint" />
            <mxPoint x="790" y="150" as="targetPoint" />
            <mxPoint as="offset" />
          </mxGeometry>
        </mxCell>
        <mxCell id="jLa2EtzC_MBwGBZeZa0Z-24" value="&lt;div style=&quot;text-align: left;&quot;&gt;&lt;span style=&quot;font-size: 12px; background-color: rgb(251, 251, 251);&quot;&gt;Asignacion&lt;/span&gt;&lt;/div&gt;" style="html=1;verticalAlign=bottom;endArrow=block;curved=0;rounded=0;dashed=1;" edge="1" parent="1" target="jLa2EtzC_MBwGBZeZa0Z-1">
          <mxGeometry x="0.0019" relative="1" as="geometry">
            <mxPoint x="790" y="200" as="sourcePoint" />
            <mxPoint x="610" y="200.00000000000003" as="targetPoint" />
            <mxPoint as="offset" />
          </mxGeometry>
        </mxCell>
        <mxCell id="jLa2EtzC_MBwGBZeZa0Z-27" value="&lt;span style=&quot;font-size: 12px; text-align: left; background-color: rgb(251, 251, 251); text-decoration-line: underline;&quot;&gt;asignarTarea&lt;/span&gt;" style="html=1;verticalAlign=bottom;startArrow=oval;startFill=1;endArrow=block;startSize=8;curved=0;rounded=0;" edge="1" parent="1" source="jLa2EtzC_MBwGBZeZa0Z-6" target="jLa2EtzC_MBwGBZeZa0Z-19">
          <mxGeometry x="-0.0345" width="60" relative="1" as="geometry">
            <mxPoint x="290" y="290" as="sourcePoint" />
            <mxPoint x="435" y="290" as="targetPoint" />
            <mxPoint as="offset" />
            <Array as="points">
              <mxPoint x="410" y="290" />
            </Array>
          </mxGeometry>
        </mxCell>
        <mxCell id="jLa2EtzC_MBwGBZeZa0Z-28" value="&lt;span style=&quot;font-size: 12px; text-align: left; background-color: rgb(251, 251, 251); text-decoration-line: underline;&quot;&gt;asignarMiebreTarea&lt;/span&gt;" style="html=1;verticalAlign=bottom;startArrow=oval;startFill=1;endArrow=block;startSize=8;curved=0;rounded=0;" edge="1" parent="1" target="jLa2EtzC_MBwGBZeZa0Z-4">
          <mxGeometry x="-0.0355" width="60" relative="1" as="geometry">
            <mxPoint x="615" y="300" as="sourcePoint" />
            <mxPoint x="975" y="300" as="targetPoint" />
            <mxPoint as="offset" />
          </mxGeometry>
        </mxCell>
        <mxCell id="jLa2EtzC_MBwGBZeZa0Z-29" value="&lt;div style=&quot;text-align: left;&quot;&gt;&lt;span style=&quot;font-size: 12px; background-color: rgb(251, 251, 251);&quot;&gt;Asignacion&lt;/span&gt;&lt;/div&gt;" style="html=1;verticalAlign=bottom;endArrow=block;curved=0;rounded=0;dashed=1;" edge="1" parent="1">
          <mxGeometry x="0.0019" relative="1" as="geometry">
            <mxPoint x="790" y="330" as="sourcePoint" />
            <mxPoint x="615" y="330" as="targetPoint" />
            <mxPoint as="offset" />
          </mxGeometry>
        </mxCell>
        <mxCell id="jLa2EtzC_MBwGBZeZa0Z-30" value="&lt;span style=&quot;font-size: 12px; text-align: left; background-color: rgb(251, 251, 251); text-decoration-line: underline;&quot;&gt;crearAsignacio&lt;/span&gt;" style="html=1;verticalAlign=bottom;startArrow=oval;startFill=1;endArrow=block;startSize=8;curved=0;rounded=0;" edge="1" parent="1">
          <mxGeometry x="-0.0355" width="60" relative="1" as="geometry">
            <mxPoint x="800" y="310" as="sourcePoint" />
            <mxPoint x="953" y="310" as="targetPoint" />
            <mxPoint as="offset" />
          </mxGeometry>
        </mxCell>
        <mxCell id="jLa2EtzC_MBwGBZeZa0Z-31" value="&lt;span style=&quot;font-size: 12px; text-align: left; background-color: rgb(251, 251, 251);&quot;&gt;Miembro del Equipo&lt;/span&gt;" style="html=1;verticalAlign=bottom;endArrow=block;curved=0;rounded=0;dashed=1;entryX=0.333;entryY=0.623;entryDx=0;entryDy=0;entryPerimeter=0;" edge="1" parent="1">
          <mxGeometry x="0.0019" relative="1" as="geometry">
            <mxPoint x="960" y="330.28999999999996" as="sourcePoint" />
            <mxPoint x="800" y="330" as="targetPoint" />
            <mxPoint as="offset" />
          </mxGeometry>
        </mxCell>
        <mxCell id="jLa2EtzC_MBwGBZeZa0Z-32" value="&lt;div style=&quot;text-align: left;&quot;&gt;&lt;span style=&quot;font-size: 12px; background-color: rgb(251, 251, 251);&quot;&gt;notificarAsignacion&lt;/span&gt;&lt;br&gt;&lt;/div&gt;" style="html=1;verticalAlign=bottom;startArrow=oval;startFill=1;endArrow=block;startSize=8;curved=0;rounded=0;" edge="1" parent="1">
          <mxGeometry x="-0.0345" width="60" relative="1" as="geometry">
            <mxPoint x="430" y="354.58000000000004" as="sourcePoint" />
            <mxPoint x="1113" y="354.58000000000004" as="targetPoint" />
            <mxPoint as="offset" />
          </mxGeometry>
        </mxCell>
        <mxCell id="jLa2EtzC_MBwGBZeZa0Z-33" value="" style="html=1;points=[[0,0,0,0,5],[0,1,0,0,-5],[1,0,0,0,5],[1,1,0,0,-5]];perimeter=orthogonalPerimeter;outlineConnect=0;targetShapes=umlLifeline;portConstraint=eastwest;newEdgeStyle={&quot;curved&quot;:0,&quot;rounded&quot;:0};" vertex="1" parent="1">
          <mxGeometry x="1113" y="320" width="10" height="50" as="geometry" />
        </mxCell>
        <mxCell id="jLa2EtzC_MBwGBZeZa0Z-34" value="" style="html=1;points=[[0,0,0,0,5],[0,1,0,0,-5],[1,0,0,0,5],[1,1,0,0,-5]];perimeter=orthogonalPerimeter;outlineConnect=0;targetShapes=umlLifeline;portConstraint=eastwest;newEdgeStyle={&quot;curved&quot;:0,&quot;rounded&quot;:0};" vertex="1" parent="1">
          <mxGeometry x="1123" y="336.25" width="10" height="30" as="geometry" />
        </mxCell>
        <mxCell id="jLa2EtzC_MBwGBZeZa0Z-35" value="" style="edgeStyle=orthogonalEdgeStyle;rounded=0;orthogonalLoop=1;jettySize=auto;html=1;curved=0;entryX=1;entryY=1;entryDx=0;entryDy=-5;entryPerimeter=0;" edge="1" parent="1" source="jLa2EtzC_MBwGBZeZa0Z-34" target="jLa2EtzC_MBwGBZeZa0Z-34">
          <mxGeometry relative="1" as="geometry">
            <Array as="points">
              <mxPoint x="1203" y="351" />
              <mxPoint x="1203" y="361" />
              <mxPoint x="1153" y="361" />
            </Array>
          </mxGeometry>
        </mxCell>
        <mxCell id="jLa2EtzC_MBwGBZeZa0Z-36" value="enviarNotificacion" style="text;html=1;align=center;verticalAlign=middle;resizable=0;points=[];autosize=1;strokeColor=none;fillColor=none;" vertex="1" parent="1">
          <mxGeometry x="1193" y="340" width="120" height="30" as="geometry" />
        </mxCell>
      </root>
    </mxGraphModel>
  </diagram>
  <diagram id="PIo9MiLoGoIh61YsI7-Z" name="DIAGRAMA DE ACTVIDADES">
    <mxGraphModel dx="2673" dy="1857" grid="1" gridSize="10" guides="1" tooltips="1" connect="1" arrows="1" fold="1" page="1" pageScale="1" pageWidth="827" pageHeight="1169" math="0" shadow="0">
      <root>
        <mxCell id="0" />
        <mxCell id="1" parent="0" />
        <mxCell id="ulC-65OQu2rET_24B27R-27" value="Administrador de proyecto" style="swimlane;horizontal=0;whiteSpace=wrap;html=1;" vertex="1" parent="1">
          <mxGeometry x="940" y="130" width="2060" height="300" as="geometry" />
        </mxCell>
        <mxCell id="ulC-65OQu2rET_24B27R-28" value="" style="verticalLabelPosition=bottom;verticalAlign=top;html=1;shape=mxgraph.flowchart.on-page_reference;fillColor=#000000" vertex="1" parent="ulC-65OQu2rET_24B27R-27">
          <mxGeometry x="50" y="50" width="40" height="40" as="geometry" />
        </mxCell>
        <mxCell id="ulC-65OQu2rET_24B27R-29" value="Iniciar sesión en el sistema SSAP" style="rounded=1;whiteSpace=wrap;html=1;" vertex="1" parent="ulC-65OQu2rET_24B27R-27">
          <mxGeometry x="140" y="40" width="120" height="60" as="geometry" />
        </mxCell>
        <mxCell id="ulC-65OQu2rET_24B27R-30" value="" style="edgeStyle=orthogonalEdgeStyle;rounded=0;orthogonalLoop=1;jettySize=auto;html=1;" edge="1" parent="ulC-65OQu2rET_24B27R-27" source="ulC-65OQu2rET_24B27R-28" target="ulC-65OQu2rET_24B27R-29">
          <mxGeometry relative="1" as="geometry" />
        </mxCell>
        <mxCell id="ulC-65OQu2rET_24B27R-54" style="edgeStyle=orthogonalEdgeStyle;rounded=0;orthogonalLoop=1;jettySize=auto;html=1;" edge="1" parent="ulC-65OQu2rET_24B27R-27" source="ulC-65OQu2rET_24B27R-31" target="ulC-65OQu2rET_24B27R-53">
          <mxGeometry relative="1" as="geometry" />
        </mxCell>
        <mxCell id="ulC-65OQu2rET_24B27R-31" value="Ingresar a la interfaz de la tarea" style="rounded=1;whiteSpace=wrap;html=1;" vertex="1" parent="ulC-65OQu2rET_24B27R-27">
          <mxGeometry x="490" y="40" width="120" height="60" as="geometry" />
        </mxCell>
        <mxCell id="ulC-65OQu2rET_24B27R-37" value="Ingresar a la interfaz del proyecto" style="rounded=1;whiteSpace=wrap;html=1;" vertex="1" parent="ulC-65OQu2rET_24B27R-27">
          <mxGeometry x="311" y="40" width="120" height="60" as="geometry" />
        </mxCell>
        <mxCell id="ulC-65OQu2rET_24B27R-38" value="" style="edgeStyle=orthogonalEdgeStyle;rounded=0;orthogonalLoop=1;jettySize=auto;html=1;entryX=0;entryY=0.5;entryDx=0;entryDy=0;" edge="1" parent="ulC-65OQu2rET_24B27R-27" source="ulC-65OQu2rET_24B27R-37" target="ulC-65OQu2rET_24B27R-31">
          <mxGeometry relative="1" as="geometry">
            <mxPoint x="510.9999999999998" y="110" as="targetPoint" />
          </mxGeometry>
        </mxCell>
        <mxCell id="ulC-65OQu2rET_24B27R-39" value="" style="edgeStyle=orthogonalEdgeStyle;rounded=0;orthogonalLoop=1;jettySize=auto;html=1;" edge="1" parent="ulC-65OQu2rET_24B27R-27" source="ulC-65OQu2rET_24B27R-29" target="ulC-65OQu2rET_24B27R-37">
          <mxGeometry relative="1" as="geometry" />
        </mxCell>
        <mxCell id="ulC-65OQu2rET_24B27R-56" value="" style="edgeStyle=orthogonalEdgeStyle;rounded=0;orthogonalLoop=1;jettySize=auto;html=1;" edge="1" parent="ulC-65OQu2rET_24B27R-27" source="ulC-65OQu2rET_24B27R-53" target="ulC-65OQu2rET_24B27R-55">
          <mxGeometry relative="1" as="geometry" />
        </mxCell>
        <mxCell id="ulC-65OQu2rET_24B27R-58" value="SI" style="edgeLabel;html=1;align=center;verticalAlign=middle;resizable=0;points=[];" vertex="1" connectable="0" parent="ulC-65OQu2rET_24B27R-56">
          <mxGeometry x="0.068" y="2" relative="1" as="geometry">
            <mxPoint as="offset" />
          </mxGeometry>
        </mxCell>
        <mxCell id="ulC-65OQu2rET_24B27R-53" value="¿Asignara una subtarea?" style="rhombus;whiteSpace=wrap;html=1;" vertex="1" parent="ulC-65OQu2rET_24B27R-27">
          <mxGeometry x="680" y="8.129999999999995" width="110" height="123.75" as="geometry" />
        </mxCell>
        <mxCell id="ulC-65OQu2rET_24B27R-55" value="Ingresar a la interfaz de la subtarea" style="whiteSpace=wrap;html=1;" vertex="1" parent="ulC-65OQu2rET_24B27R-27">
          <mxGeometry x="890" y="40.004999999999995" width="120" height="60" as="geometry" />
        </mxCell>
        <mxCell id="ulC-65OQu2rET_24B27R-65" style="edgeStyle=orthogonalEdgeStyle;rounded=0;orthogonalLoop=1;jettySize=auto;html=1;" edge="1" parent="ulC-65OQu2rET_24B27R-27" source="ulC-65OQu2rET_24B27R-35" target="ulC-65OQu2rET_24B27R-64">
          <mxGeometry relative="1" as="geometry" />
        </mxCell>
        <mxCell id="ulC-65OQu2rET_24B27R-66" value="No" style="edgeLabel;html=1;align=center;verticalAlign=middle;resizable=0;points=[];" vertex="1" connectable="0" parent="ulC-65OQu2rET_24B27R-65">
          <mxGeometry x="-0.0047" relative="1" as="geometry">
            <mxPoint as="offset" />
          </mxGeometry>
        </mxCell>
        <mxCell id="ulC-65OQu2rET_24B27R-35" value="¿Hay miembros del equipo disponibles?" style="rhombus;whiteSpace=wrap;html=1;" vertex="1" parent="ulC-65OQu2rET_24B27R-27">
          <mxGeometry x="1215" y="8.13" width="110" height="123.75" as="geometry" />
        </mxCell>
        <mxCell id="ulC-65OQu2rET_24B27R-60" value="" style="edgeStyle=orthogonalEdgeStyle;rounded=0;orthogonalLoop=1;jettySize=auto;html=1;" edge="1" parent="ulC-65OQu2rET_24B27R-27" source="ulC-65OQu2rET_24B27R-53" target="ulC-65OQu2rET_24B27R-35">
          <mxGeometry relative="1" as="geometry">
            <mxPoint x="735" y="180.005" as="targetPoint" />
            <Array as="points">
              <mxPoint x="735" y="240" />
              <mxPoint x="1120" y="240" />
              <mxPoint x="1120" y="70" />
            </Array>
          </mxGeometry>
        </mxCell>
        <mxCell id="ulC-65OQu2rET_24B27R-61" value="No" style="edgeLabel;html=1;align=center;verticalAlign=middle;resizable=0;points=[];" vertex="1" connectable="0" parent="ulC-65OQu2rET_24B27R-60">
          <mxGeometry x="-0.1614" y="2" relative="1" as="geometry">
            <mxPoint as="offset" />
          </mxGeometry>
        </mxCell>
        <mxCell id="ulC-65OQu2rET_24B27R-62" style="edgeStyle=orthogonalEdgeStyle;rounded=0;orthogonalLoop=1;jettySize=auto;html=1;entryX=0;entryY=0.5;entryDx=0;entryDy=0;" edge="1" parent="ulC-65OQu2rET_24B27R-27" source="ulC-65OQu2rET_24B27R-55" target="ulC-65OQu2rET_24B27R-35">
          <mxGeometry relative="1" as="geometry">
            <Array as="points">
              <mxPoint x="1210" y="70" />
            </Array>
          </mxGeometry>
        </mxCell>
        <mxCell id="ulC-65OQu2rET_24B27R-64" value="" style="ellipse;html=1;shape=endState;fillColor=#000000;strokeColor=#ff0000;" vertex="1" parent="ulC-65OQu2rET_24B27R-27">
          <mxGeometry x="1610" y="49.99999999999999" width="40" height="40" as="geometry" />
        </mxCell>
        <mxCell id="ulC-65OQu2rET_24B27R-40" value="SSAP&amp;nbsp;" style="swimlane;horizontal=0;whiteSpace=wrap;html=1;startSize=23;" vertex="1" parent="1">
          <mxGeometry x="940" y="430" width="2060" height="260" as="geometry" />
        </mxCell>
        <mxCell id="ulC-65OQu2rET_24B27R-45" style="edgeStyle=orthogonalEdgeStyle;rounded=0;orthogonalLoop=1;jettySize=auto;html=1;" edge="1" parent="ulC-65OQu2rET_24B27R-40" source="ulC-65OQu2rET_24B27R-46" target="ulC-65OQu2rET_24B27R-41">
          <mxGeometry relative="1" as="geometry" />
        </mxCell>
        <mxCell id="ulC-65OQu2rET_24B27R-47" style="edgeStyle=orthogonalEdgeStyle;rounded=0;orthogonalLoop=1;jettySize=auto;html=1;" edge="1" parent="ulC-65OQu2rET_24B27R-40" source="ulC-65OQu2rET_24B27R-42" target="ulC-65OQu2rET_24B27R-49">
          <mxGeometry relative="1" as="geometry">
            <mxPoint x="1420" y="51.86999999999989" as="targetPoint" />
          </mxGeometry>
        </mxCell>
        <mxCell id="ulC-65OQu2rET_24B27R-48" style="edgeStyle=orthogonalEdgeStyle;rounded=0;orthogonalLoop=1;jettySize=auto;html=1;" edge="1" parent="ulC-65OQu2rET_24B27R-40" source="ulC-65OQu2rET_24B27R-49" target="ulC-65OQu2rET_24B27R-46">
          <mxGeometry relative="1" as="geometry" />
        </mxCell>
        <mxCell id="ulC-65OQu2rET_24B27R-50" style="edgeStyle=orthogonalEdgeStyle;rounded=0;orthogonalLoop=1;jettySize=auto;html=1;" edge="1" parent="ulC-65OQu2rET_24B27R-40" source="ulC-65OQu2rET_24B27R-36" target="ulC-65OQu2rET_24B27R-42">
          <mxGeometry relative="1" as="geometry" />
        </mxCell>
        <mxCell id="ulC-65OQu2rET_24B27R-36" value="Asigna miembro de equipo a la tarea" style="whiteSpace=wrap;html=1;" vertex="1" parent="ulC-65OQu2rET_24B27R-40">
          <mxGeometry x="1210" y="-98.13" width="120" height="60" as="geometry" />
        </mxCell>
        <mxCell id="ulC-65OQu2rET_24B27R-41" value="" style="ellipse;html=1;shape=endState;fillColor=#000000;strokeColor=#ff0000;" vertex="1" parent="ulC-65OQu2rET_24B27R-40">
          <mxGeometry x="1972" y="31.869999999999997" width="40" height="40" as="geometry" />
        </mxCell>
        <mxCell id="ulC-65OQu2rET_24B27R-42" value="Envia notificacion de asignacion" style="whiteSpace=wrap;html=1;" vertex="1" parent="ulC-65OQu2rET_24B27R-40">
          <mxGeometry x="1210" y="21.869999999999997" width="120" height="60" as="geometry" />
        </mxCell>
        <mxCell id="ulC-65OQu2rET_24B27R-46" value="Guarda en base de datos" style="whiteSpace=wrap;html=1;" vertex="1" parent="ulC-65OQu2rET_24B27R-40">
          <mxGeometry x="1680" y="21.869999999999997" width="120" height="60" as="geometry" />
        </mxCell>
        <mxCell id="ulC-65OQu2rET_24B27R-49" value="Asociar la tarea o subtarea al usuario" style="whiteSpace=wrap;html=1;" vertex="1" parent="ulC-65OQu2rET_24B27R-40">
          <mxGeometry x="1460" y="21.869999999999997" width="120" height="60" as="geometry" />
        </mxCell>
        <mxCell id="ulC-65OQu2rET_24B27R-33" value="" style="edgeStyle=orthogonalEdgeStyle;rounded=0;orthogonalLoop=1;jettySize=auto;html=1;" edge="1" parent="1" source="ulC-65OQu2rET_24B27R-35" target="ulC-65OQu2rET_24B27R-36">
          <mxGeometry relative="1" as="geometry" />
        </mxCell>
        <mxCell id="ulC-65OQu2rET_24B27R-34" value="Si" style="edgeLabel;html=1;align=center;verticalAlign=middle;resizable=0;points=[];" vertex="1" connectable="0" parent="ulC-65OQu2rET_24B27R-33">
          <mxGeometry x="-0.1571" y="-2" relative="1" as="geometry">
            <mxPoint as="offset" />
          </mxGeometry>
        </mxCell>
      </root>
    </mxGraphModel>
  </diagram>
</mxfile>
